<svg xmlns="http://www.w3.org/2000/svg" xmlns:xlink="http://www.w3.org/1999/xlink" xmlns:lucid="lucid" width="1532" height="488.44"><g transform="translate(300 -240)" lucid:page-tab-id="0_0"><path d="M200 300h140v320H200z" stroke="#000" stroke-width="2" fill="#fff"/><use xlink:href="#a" transform="matrix(1,0,0,1,205,305) translate(28.994140625 167.6171875)"/><path d="M-260 280h80v180h-80z" stroke="#000" stroke-opacity="0" stroke-width="5" fill="#fff" fill-opacity="0"/><use xlink:href="#b" transform="matrix(1,0,0,1,-255,285) translate(8.328993055555557 49.6484375)"/><use xlink:href="#c" transform="matrix(1,0,0,1,-255,285) translate(8.328993055555557 71.87065972222223)"/><use xlink:href="#d" transform="matrix(1,0,0,1,-255,285) translate(8.328993055555557 94.09288194444444)"/><use xlink:href="#e" transform="matrix(1,0,0,1,-255,285) translate(8.328993055555557 116.31510416666666)"/><use xlink:href="#f" transform="matrix(1,0,0,1,-255,285) translate(35 138.53732638888889)"/><path d="M-280 480h100v160h-100z" stroke="#000" stroke-opacity="0" stroke-width="5" fill="#fff" fill-opacity="0"/><use xlink:href="#g" transform="matrix(1,0,0,1,-275,485) translate(4.993489583333329 50.5859375)"/><use xlink:href="#h" transform="matrix(1,0,0,1,-275,485) translate(4.993489583333329 72.80815972222223)"/><use xlink:href="#i" transform="matrix(1,0,0,1,-275,485) translate(4.993489583333329 95.03038194444444)"/><use xlink:href="#j" transform="matrix(1,0,0,1,-275,485) translate(4.993489583333329 117.25260416666666)"/><path d="M-58 300H82v320H-58z" stroke="#000" stroke-width="2" fill="#fff"/><use xlink:href="#k" transform="matrix(1,0,0,1,-53,305) translate(40.99609375 167.6171875)"/><path d="M84.5 320h113M84.56 320H82M197.44 320H200M84.5 598.67h113M84.56 598.67H82M197.44 598.67H200" stroke="#000" stroke-width="5" fill="none"/><path d="M144.33 443.33c0 1.84-1.5 3.34-3.33 3.34-1.84 0-3.33-1.5-3.33-3.34 0-1.84 1.5-3.33 3.33-3.33 1.84 0 3.33 1.5 3.33 3.33zM144.33 460c0 1.84-1.5 3.33-3.33 3.33-1.84 0-3.33-1.5-3.33-3.33 0-1.84 1.5-3.33 3.33-3.33 1.84 0 3.33 1.5 3.33 3.33zM144.33 476.67c0 1.84-1.5 3.33-3.33 3.33-1.84 0-3.33-1.5-3.33-3.33 0-1.84 1.5-3.34 3.33-3.34 1.84 0 3.33 1.5 3.33 3.34z" stroke="#000" stroke-width="5"/><path d="M84.5 338.67h113M84.56 338.67H82M197.44 338.67H200M84.5 358.67h113M84.56 358.67H82M197.44 358.67H200M84.5 378.67h113M84.56 378.67H82M197.43 378.67H200M84.5 581.33h113M84.56 581.33H82M197.44 581.33H200M84.5 560h113M84.56 560H82M197.44 560H200M84.5 542.67h113M84.56 542.67H82M197.44 542.67H200M84.5 521.33h113M84.56 521.33H82M197.44 521.33H200M84.5 397.33h113M84.56 397.33H82M197.44 397.33H200M-173.5 320h113M-173.44 320H-176M-60.56 320H-58M-173.5 598.67h113M-173.44 598.67H-176M-60.56 598.67H-58" stroke="#000" stroke-width="5" fill="none"/><path d="M-133.33 443.33c0 1.84-1.5 3.34-3.34 3.34-1.84 0-3.33-1.5-3.33-3.34 0-1.84 1.5-3.33 3.33-3.33 1.84 0 3.34 1.5 3.34 3.33zM-133.33 460c0 1.84-1.5 3.33-3.34 3.33-1.84 0-3.33-1.5-3.33-3.33 0-1.84 1.5-3.33 3.33-3.33 1.84 0 3.34 1.5 3.34 3.33zM-133.33 476.67c0 1.84-1.5 3.33-3.34 3.33-1.84 0-3.33-1.5-3.33-3.33 0-1.84 1.5-3.34 3.33-3.34 1.84 0 3.34 1.5 3.34 3.34z" stroke="#000" stroke-width="5"/><path d="M-173.5 338.67h113M-173.44 338.67H-176M-60.56 338.67H-58M-173.5 358.67h113M-173.44 358.67H-176M-60.56 358.67H-58M-173.5 378.67h113M-173.44 378.67H-176M-60.57 378.67H-58M-173.5 581.33h113M-173.44 581.33H-176M-60.56 581.33H-58M-173.5 560h113M-173.44 560H-176M-60.56 560H-58M-173.5 542.67h113M-173.44 542.67H-176M-60.56 542.67H-58M-173.5 521.33h113M-173.44 521.33H-176M-60.56 521.33H-58M-173.5 397.33h113M-173.44 397.33H-176M-60.56 397.33H-58" stroke="#000" stroke-width="5" fill="none"/><path d="M170 640h80v60h-80z" stroke="#000" stroke-opacity="0" stroke-width="5" fill="#fff" fill-opacity="0"/><use xlink:href="#l" transform="matrix(1,0,0,1,175,645) translate(8.328993055555557 17.7734375)"/><use xlink:href="#m" transform="matrix(1,0,0,1,175,645) translate(35 39.99565972222222)"/><use xlink:href="#f" transform="matrix(1,0,0,1,175,645) translate(35 62.21788194444444)"/><path d="M-100 300h20v320h-20z" stroke="#000" stroke-width="5" fill="#fff"/><path d="M716 300h222v320H716z" stroke="#000" stroke-width="2" fill="#fff"/><use xlink:href="#n" transform="matrix(1,0,0,1,721,305.0000000000001) translate(21.986328125 148.2421875)"/><use xlink:href="#o" transform="matrix(1,0,0,1,721,305.0000000000001) translate(57.9921875 188.2421875)"/><path d="M600.5 320h113M600.56 320H598M713.44 320H716M600.5 598.67h113M600.56 598.67H598M713.44 598.67H716" stroke="#000" stroke-width="5" fill="none"/><path d="M660.33 443.33c0 1.84-1.5 3.34-3.33 3.34-1.84 0-3.33-1.5-3.33-3.34 0-1.84 1.5-3.33 3.33-3.33 1.84 0 3.33 1.5 3.33 3.33zM660.33 460c0 1.84-1.5 3.33-3.33 3.33-1.84 0-3.33-1.5-3.33-3.33 0-1.84 1.5-3.33 3.33-3.33 1.84 0 3.33 1.5 3.33 3.33zM660.33 476.67c0 1.84-1.5 3.33-3.33 3.33-1.84 0-3.33-1.5-3.33-3.33 0-1.84 1.5-3.34 3.33-3.34 1.84 0 3.33 1.5 3.33 3.34z" stroke="#000" stroke-width="5"/><path d="M600.5 338.67h113M600.56 338.67H598M713.44 338.67H716M600.5 358.67h113M600.56 358.67H598M713.44 358.67H716M600.5 378.67h113M600.56 378.67H598M713.43 378.67H716M600.5 581.33h113M600.56 581.33H598M713.44 581.33H716M600.5 560h113M600.56 560H598M713.44 560H716M600.5 542.67h113M600.56 542.67H598M713.44 542.67H716M600.5 521.33h113M600.56 521.33H598M713.44 521.33H716M600.5 397.33h113M600.56 397.33H598M713.44 397.33H716M940.5 320h113M940.56 320H938M1053.44 320h2.56M940.5 598.67h113M940.56 598.67H938M1053.44 598.67h2.56" stroke="#000" stroke-width="5" fill="none"/><path d="M1000.33 443.33c0 1.84-1.5 3.34-3.33 3.34-1.84 0-3.33-1.5-3.33-3.34 0-1.84 1.5-3.33 3.33-3.33 1.84 0 3.33 1.5 3.33 3.33zM1000.33 460c0 1.84-1.5 3.33-3.33 3.33-1.84 0-3.33-1.5-3.33-3.33 0-1.84 1.5-3.33 3.33-3.33 1.84 0 3.33 1.5 3.33 3.33zM1000.33 476.67c0 1.84-1.5 3.33-3.33 3.33-1.84 0-3.33-1.5-3.33-3.33 0-1.84 1.5-3.34 3.33-3.34 1.84 0 3.33 1.5 3.33 3.34z" stroke="#000" stroke-width="5"/><path d="M940.5 338.67h113M940.56 338.67H938M1053.44 338.67h2.56M940.5 358.67h113M940.56 358.67H938M1053.44 358.67h2.56M940.5 378.67h113M940.56 378.67H938M1053.43 378.67h2.57M940.5 581.33h113M940.56 581.33H938M1053.44 581.33h2.56M940.5 560h113M940.56 560H938M1053.44 560h2.56M940.5 542.67h113M940.56 542.67H938M1053.44 542.67h2.56M940.5 521.33h113M940.56 521.33H938M1053.44 521.33h2.56M940.5 397.33h113M940.56 397.33H938M1053.44 397.33h2.56" stroke="#000" stroke-width="5" fill="none"/><path d="M1058 260h80v180h-80z" stroke="#000" stroke-opacity="0" stroke-width="5" fill="#fff" fill-opacity="0"/><use xlink:href="#p" transform="matrix(1,0,0,1,1063,265) translate(0 67.32855902777779)"/><use xlink:href="#q" transform="matrix(1,0,0,1,1063,265) translate(0 91.77300347222223)"/><use xlink:href="#r" transform="matrix(1,0,0,1,1063,265) translate(0 116.21744791666667)"/><use xlink:href="#s" transform="matrix(1,0,0,1,1063,265) translate(0 140.66189236111111)"/><use xlink:href="#t" transform="matrix(1,0,0,1,1063,265) translate(35 165.10633680555554)"/><path d="M1058 500h140v160h-140z" stroke="#000" stroke-opacity="0" stroke-width="5" fill="#fff" fill-opacity="0"/><use xlink:href="#u" transform="matrix(1,0,0,1,1063,505) translate(0 19.55078125)"/><use xlink:href="#v" transform="matrix(1,0,0,1,1063,505) translate(0 43.99522569444444)"/><use xlink:href="#w" transform="matrix(1,0,0,1,1063,505) translate(0 68.43967013888889)"/><use xlink:href="#x" transform="matrix(1,0,0,1,1063,505) translate(0 92.88411458333333)"/><path d="M458 300h140v320H458z" stroke="#000" stroke-width="2" fill="#fff"/><use xlink:href="#y" transform="matrix(1,0,0,1,463,305) translate(48.28125 167.6171875)"/><path d="M509 580h40v30h-40z" stroke="#000" stroke-opacity="0" stroke-width="5" fill="#fff" fill-opacity="0"/><use xlink:href="#z" transform="matrix(1,0,0,1,514,585) translate(-1.20263671875 15.396484375)"/><path d="M808 580h40v30h-40z" stroke="#000" stroke-opacity="0" stroke-width="5" fill="#fff" fill-opacity="0"/><use xlink:href="#A" transform="matrix(1,0,0,1,813,585) translate(-1.20263671875 15.396484375)"/><path d="M250 580h40v30h-40z" stroke="#000" stroke-opacity="0" stroke-width="5" fill="#fff" fill-opacity="0"/><use xlink:href="#B" transform="matrix(1,0,0,1,255,585) translate(-1.20263671875 15.396484375)"/><path d="M-8 580h40v30H-8z" stroke="#000" stroke-opacity="0" stroke-width="5" fill="#fff" fill-opacity="0"/><use xlink:href="#C" transform="matrix(1,0,0,1,-3,585) translate(-1.20263671875 15.396484375)"/><path d="M342.5 320h113M342.56 320H340M455.44 320H458M342.5 598.67h113M342.56 598.67H340M455.44 598.67H458" stroke="#000" stroke-width="5" fill="none"/><path d="M402.33 443.33c0 1.84-1.5 3.34-3.33 3.34-1.84 0-3.33-1.5-3.33-3.34 0-1.84 1.5-3.33 3.33-3.33 1.84 0 3.33 1.5 3.33 3.33zM402.33 460c0 1.84-1.5 3.33-3.33 3.33-1.84 0-3.33-1.5-3.33-3.33 0-1.84 1.5-3.33 3.33-3.33 1.84 0 3.33 1.5 3.33 3.33zM402.33 476.67c0 1.84-1.5 3.33-3.33 3.33-1.84 0-3.33-1.5-3.33-3.33 0-1.84 1.5-3.34 3.33-3.34 1.84 0 3.33 1.5 3.33 3.34z" stroke="#000" stroke-width="5"/><path d="M342.5 338.67h113M342.56 338.67H340M455.44 338.67H458M342.5 358.67h113M342.56 358.67H340M455.44 358.67H458M342.5 378.67h113M342.56 378.67H340M455.43 378.67H458M342.5 581.33h113M342.56 581.33H340M455.44 581.33H458M342.5 560h113M342.56 560H340M455.44 560H458M342.5 542.67h113M342.56 542.67H340M455.44 542.67H458M342.5 521.33h113M342.56 521.33H340M455.44 521.33H458M342.5 397.33h113M342.56 397.33H340M455.44 397.33H458M528 623.5V680H-90v-55" stroke="#000" stroke-width="5" fill="none"/><path d="M530.5 623.56h-5V621h5zM-87.5 625.06h-5v-2.56h5z"/><defs><path d="M116-154v-153l858-367-858-366v-154l995 418v205" id="D"/><path d="M1003 0L516-638 353-469V0H162v-1349h191v673l572-673h225L646-777 1227 0h-224" id="E"/><g id="a"><use transform="matrix(0.01953125,0,0,0.01953125,0,0)" xlink:href="#D"/><use transform="matrix(0.01953125,0,0,0.01953125,24.00390625,0)" xlink:href="#D"/><use transform="matrix(0.01953125,0,0,0.01953125,48.0078125,0)" xlink:href="#E"/></g><path d="M614-1226c-167 1-283 53-283 213 0 183 186 193 334 234 230 63 463 120 463 409 0 286-219 387-518 390C309 23 131-98 79-338l185-37c34 165 149 248 351 246 184-2 324-58 324-238 0-203-207-221-372-266-210-57-422-111-422-377 0-267 201-356 470-360 279-5 430 101 480 324l-188 33c-28-141-121-215-293-213" id="F"/><path d="M410 425v-1909h547v139H590V286h367v139H410" id="G"/><path d="M1065-1013c47 164 49 500-1 665C999-130 875 20 611 20c-377 0-484-300-487-695-2-245 41-425 141-551 77-98 191-144 352-144 261 0 386 140 448 357zM741-155c199-92 203-504 159-785-26-168-96-284-283-284-281 0-308 256-311 549-2 181 18 324 80 428 46 77 115 118 227 120 47 0 90-10 128-28zM496-555v-249h235v249H496" id="H"/><path d="M270 425V286h367v-1631H270v-139h547V425H270" id="I"/><g id="b"><use transform="matrix(0.010850694444444444,0,0,0.010850694444444444,0,0)" xlink:href="#F"/><use transform="matrix(0.010850694444444444,0,0,0.010850694444444444,13.335503472222221,0)" xlink:href="#G"/><use transform="matrix(0.010850694444444444,0,0,0.010850694444444444,26.671006944444443,0)" xlink:href="#H"/><use transform="matrix(0.010850694444444444,0,0,0.010850694444444444,40.006510416666664,0)" xlink:href="#I"/></g><path d="M148-1120c216-7 379-89 463-229h166v1204h353V0H157v-145h439v-1021c-79 124-254 184-448 194v-148" id="J"/><g id="c"><use transform="matrix(0.010850694444444444,0,0,0.010850694444444444,0,0)" xlink:href="#F"/><use transform="matrix(0.010850694444444444,0,0,0.010850694444444444,13.335503472222221,0)" xlink:href="#G"/><use transform="matrix(0.010850694444444444,0,0,0.010850694444444444,26.671006944444443,0)" xlink:href="#J"/><use transform="matrix(0.010850694444444444,0,0,0.010850694444444444,40.006510416666664,0)" xlink:href="#I"/></g><path d="M611-1370c266 0 451 106 451 368 0 147-77 243-154 327-132 144-316 255-451 395-42 44-75 87-96 134h723V0H144v-117c124-264 387-411 582-603 73-72 151-147 151-271 0-161-104-231-266-231-163 0-249 90-268 238l-184-17c35-233 185-369 452-369" id="K"/><g id="d"><use transform="matrix(0.010850694444444444,0,0,0.010850694444444444,0,0)" xlink:href="#F"/><use transform="matrix(0.010850694444444444,0,0,0.010850694444444444,13.335503472222221,0)" xlink:href="#G"/><use transform="matrix(0.010850694444444444,0,0,0.010850694444444444,26.671006944444443,0)" xlink:href="#K"/><use transform="matrix(0.010850694444444444,0,0,0.010850694444444444,40.006510416666664,0)" xlink:href="#I"/></g><path d="M1060-1016c0 191-128 285-295 323v4c154 18 262 91 313 209 14 35 21 72 21 110 0 277-194 390-478 390-292 0-457-129-493-382l186-17c24 161 121 250 307 250 172 1 298-80 291-247-8-208-220-239-446-233v-156c217 9 409-34 409-232 0-152-102-225-264-225-159 0-264 88-278 233l-181-14c33-239 196-367 461-367 264 0 447 102 447 354" id="L"/><g id="e"><use transform="matrix(0.010850694444444444,0,0,0.010850694444444444,0,0)" xlink:href="#F"/><use transform="matrix(0.010850694444444444,0,0,0.010850694444444444,13.335503472222221,0)" xlink:href="#G"/><use transform="matrix(0.010850694444444444,0,0,0.010850694444444444,26.671006944444443,0)" xlink:href="#L"/><use transform="matrix(0.010850694444444444,0,0,0.010850694444444444,40.006510416666664,0)" xlink:href="#I"/></g><path d="M912-211c-10-84-18-177-18-274v-864h172V0H836L316-1130c7 79 16 167 16 254V0H162v-1349h222" id="M"/><path d="M334-464v-160h560v160H334" id="N"/><path d="M937-319V0H757v-319H103v-140l635-890h199v888h188v142H937zm-180-835L257-461h500v-693" id="O"/><g id="g"><use transform="matrix(0.010850694444444444,0,0,0.010850694444444444,0,0)" xlink:href="#F"/><use transform="matrix(0.010850694444444444,0,0,0.010850694444444444,13.335503472222221,0)" xlink:href="#G"/><use transform="matrix(0.010850694444444444,0,0,0.010850694444444444,26.671006944444443,0)" xlink:href="#M"/><use transform="matrix(0.010850694444444444,0,0,0.010850694444444444,40.006510416666664,0)" xlink:href="#N"/><use transform="matrix(0.010850694444444444,0,0,0.010850694444444444,53.342013888888886,0)" xlink:href="#O"/><use transform="matrix(0.010850694444444444,0,0,0.010850694444444444,66.67751736111111,0)" xlink:href="#I"/></g><g id="h"><use transform="matrix(0.010850694444444444,0,0,0.010850694444444444,0,0)" xlink:href="#F"/><use transform="matrix(0.010850694444444444,0,0,0.010850694444444444,13.335503472222221,0)" xlink:href="#G"/><use transform="matrix(0.010850694444444444,0,0,0.010850694444444444,26.671006944444443,0)" xlink:href="#M"/><use transform="matrix(0.010850694444444444,0,0,0.010850694444444444,40.006510416666664,0)" xlink:href="#N"/><use transform="matrix(0.010850694444444444,0,0,0.010850694444444444,53.342013888888886,0)" xlink:href="#L"/><use transform="matrix(0.010850694444444444,0,0,0.010850694444444444,66.67751736111111,0)" xlink:href="#I"/></g><g id="i"><use transform="matrix(0.010850694444444444,0,0,0.010850694444444444,0,0)" xlink:href="#F"/><use transform="matrix(0.010850694444444444,0,0,0.010850694444444444,13.335503472222221,0)" xlink:href="#G"/><use transform="matrix(0.010850694444444444,0,0,0.010850694444444444,26.671006944444443,0)" xlink:href="#M"/><use transform="matrix(0.010850694444444444,0,0,0.010850694444444444,40.006510416666664,0)" xlink:href="#N"/><use transform="matrix(0.010850694444444444,0,0,0.010850694444444444,53.342013888888886,0)" xlink:href="#K"/><use transform="matrix(0.010850694444444444,0,0,0.010850694444444444,66.67751736111111,0)" xlink:href="#I"/></g><g id="j"><use transform="matrix(0.010850694444444444,0,0,0.010850694444444444,0,0)" xlink:href="#F"/><use transform="matrix(0.010850694444444444,0,0,0.010850694444444444,13.335503472222221,0)" xlink:href="#G"/><use transform="matrix(0.010850694444444444,0,0,0.010850694444444444,26.671006944444443,0)" xlink:href="#M"/><use transform="matrix(0.010850694444444444,0,0,0.010850694444444444,40.006510416666664,0)" xlink:href="#N"/><use transform="matrix(0.010850694444444444,0,0,0.010850694444444444,53.342013888888886,0)" xlink:href="#J"/><use transform="matrix(0.010850694444444444,0,0,0.010850694444444444,66.67751736111111,0)" xlink:href="#I"/></g><path d="M709-1193V0H519v-1193H76v-156h1076v156H709" id="P"/><path d="M671-1188l264-103 45 132-282 73 185 250-119 72-150-258-156 256-119-72 189-248-280-73 45-134 267 107-12-297h136" id="Q"/><g id="k"><use transform="matrix(0.01953125,0,0,0.01953125,0,0)" xlink:href="#P"/><use transform="matrix(0.01953125,0,0,0.01953125,24.00390625,0)" xlink:href="#Q"/></g><path d="M706-1102c241 0 344 136 343 381V0H868v-695c1-168-57-273-220-268-190 6-283 138-283 336V0H185c-3-360 6-732-6-1082h170c4 54 7 126 8 185h3c63-121 164-204 346-205" id="R"/><g id="l"><use transform="matrix(0.010850694444444444,0,0,0.010850694444444444,0,0)" xlink:href="#F"/><use transform="matrix(0.010850694444444444,0,0,0.010850694444444444,13.335503472222221,0)" xlink:href="#G"/><use transform="matrix(0.010850694444444444,0,0,0.010850694444444444,26.671006944444443,0)" xlink:href="#R"/><use transform="matrix(0.010850694444444444,0,0,0.010850694444444444,40.006510416666664,0)" xlink:href="#I"/></g><path d="M622-1349c296 4 497 117 497 404 0 282-193 424-485 431H353V0H162v-1349h460zm-15 684c195-3 320-88 320-277 0-184-129-255-328-254H353v531h254" id="S"/><path d="M615-1102c343 0 484 203 482 560-1 347-147 562-488 562-336 0-475-219-479-562-4-349 156-560 485-560zm-8 989c240 0 301-180 301-429 0-245-55-427-290-427-236 0-299 181-299 427 0 243 61 429 288 429" id="T"/><path d="M745-142h380V0H143v-142h422v-798H246v-142h499v940zM545-1292v-192h200v192H545" id="U"/><path d="M682 16c-209 0-323-80-324-285v-671H190v-142h170l58-282h120v282h432v142H538v652c2 114 60 155 182 155 106 0 209-16 297-34v137C921-4 806 16 682 16" id="V"/><g id="n"><use transform="matrix(0.01953125,0,0,0.01953125,0,0)" xlink:href="#M"/><use transform="matrix(0.01953125,0,0,0.01953125,24.00390625,0)" xlink:href="#N"/><use transform="matrix(0.01953125,0,0,0.01953125,48.0078125,0)" xlink:href="#S"/><use transform="matrix(0.01953125,0,0,0.01953125,72.01171875,0)" xlink:href="#T"/><use transform="matrix(0.01953125,0,0,0.01953125,96.015625,0)" xlink:href="#U"/><use transform="matrix(0.01953125,0,0,0.01953125,120.01953125,0)" xlink:href="#R"/><use transform="matrix(0.01953125,0,0,0.01953125,144.0234375,0)" xlink:href="#V"/></g><path d="M202-1349h823v156H709v1037h316V0H202v-156h316v-1037H202v-156" id="W"/><path d="M385-1193v494h676v158H385V0H194v-1349h891v156H385" id="X"/><g id="o"><use transform="matrix(0.01953125,0,0,0.01953125,0,0)" xlink:href="#W"/><use transform="matrix(0.01953125,0,0,0.01953125,24.00390625,0)" xlink:href="#X"/><use transform="matrix(0.01953125,0,0,0.01953125,48.0078125,0)" xlink:href="#X"/><use transform="matrix(0.01953125,0,0,0.01953125,72.01171875,0)" xlink:href="#P"/></g><path d="M614-836l333-513h205L717-705 1193 0H988L614-573 241 0H36l476-705-435-644h205" id="Y"/><path d="M114 20l821-1504h178L296 20H114" id="Z"/><path d="M259 363l169-662h265L382 363H259" id="aa"/><g id="p"><use transform="matrix(0.01193576388888889,0,0,0.01193576388888889,0,0)" xlink:href="#Y"/><use transform="matrix(0.01193576388888889,0,0,0.01193576388888889,14.669053819444446,0)" xlink:href="#G"/><use transform="matrix(0.01193576388888889,0,0,0.01193576388888889,29.338107638888893,0)" xlink:href="#M"/><use transform="matrix(0.01193576388888889,0,0,0.01193576388888889,44.00716145833334,0)" xlink:href="#Z"/><use transform="matrix(0.01193576388888889,0,0,0.01193576388888889,58.676215277777786,0)" xlink:href="#K"/><use transform="matrix(0.01193576388888889,0,0,0.01193576388888889,73.34526909722223,0)" xlink:href="#aa"/><use transform="matrix(0.01193576388888889,0,0,0.01193576388888889,88.01432291666667,0)" xlink:href="#E"/><use transform="matrix(0.01193576388888889,0,0,0.01193576388888889,102.68337673611111,0)" xlink:href="#I"/></g><path d="M687-608v428H540v-428H116v-146h424v-428h147v428h424v146H687" id="ab"/><g id="q"><use transform="matrix(0.01193576388888889,0,0,0.01193576388888889,0,0)" xlink:href="#Y"/><use transform="matrix(0.01193576388888889,0,0,0.01193576388888889,14.669053819444446,0)" xlink:href="#G"/><use transform="matrix(0.01193576388888889,0,0,0.01193576388888889,29.338107638888893,0)" xlink:href="#M"/><use transform="matrix(0.01193576388888889,0,0,0.01193576388888889,44.00716145833334,0)" xlink:href="#Z"/><use transform="matrix(0.01193576388888889,0,0,0.01193576388888889,58.676215277777786,0)" xlink:href="#K"/><use transform="matrix(0.01193576388888889,0,0,0.01193576388888889,73.34526909722223,0)" xlink:href="#ab"/><use transform="matrix(0.01193576388888889,0,0,0.01193576388888889,88.01432291666667,0)" xlink:href="#J"/><use transform="matrix(0.01193576388888889,0,0,0.01193576388888889,102.68337673611111,0)" xlink:href="#aa"/><use transform="matrix(0.01193576388888889,0,0,0.01193576388888889,117.35243055555557,0)" xlink:href="#E"/><use transform="matrix(0.01193576388888889,0,0,0.01193576388888889,132.021484375,0)" xlink:href="#I"/></g><g id="r"><use transform="matrix(0.01193576388888889,0,0,0.01193576388888889,0,0)" xlink:href="#Y"/><use transform="matrix(0.01193576388888889,0,0,0.01193576388888889,14.669053819444446,0)" xlink:href="#G"/><use transform="matrix(0.01193576388888889,0,0,0.01193576388888889,29.338107638888893,0)" xlink:href="#M"/><use transform="matrix(0.01193576388888889,0,0,0.01193576388888889,44.00716145833334,0)" xlink:href="#Z"/><use transform="matrix(0.01193576388888889,0,0,0.01193576388888889,58.676215277777786,0)" xlink:href="#K"/><use transform="matrix(0.01193576388888889,0,0,0.01193576388888889,73.34526909722223,0)" xlink:href="#ab"/><use transform="matrix(0.01193576388888889,0,0,0.01193576388888889,88.01432291666667,0)" xlink:href="#K"/><use transform="matrix(0.01193576388888889,0,0,0.01193576388888889,102.68337673611111,0)" xlink:href="#aa"/><use transform="matrix(0.01193576388888889,0,0,0.01193576388888889,117.35243055555557,0)" xlink:href="#E"/><use transform="matrix(0.01193576388888889,0,0,0.01193576388888889,132.021484375,0)" xlink:href="#I"/></g><g id="s"><use transform="matrix(0.01193576388888889,0,0,0.01193576388888889,0,0)" xlink:href="#Y"/><use transform="matrix(0.01193576388888889,0,0,0.01193576388888889,14.669053819444446,0)" xlink:href="#G"/><use transform="matrix(0.01193576388888889,0,0,0.01193576388888889,29.338107638888893,0)" xlink:href="#M"/><use transform="matrix(0.01193576388888889,0,0,0.01193576388888889,44.00716145833334,0)" xlink:href="#Z"/><use transform="matrix(0.01193576388888889,0,0,0.01193576388888889,58.676215277777786,0)" xlink:href="#K"/><use transform="matrix(0.01193576388888889,0,0,0.01193576388888889,73.34526909722223,0)" xlink:href="#ab"/><use transform="matrix(0.01193576388888889,0,0,0.01193576388888889,88.01432291666667,0)" xlink:href="#L"/><use transform="matrix(0.01193576388888889,0,0,0.01193576388888889,102.68337673611111,0)" xlink:href="#aa"/><use transform="matrix(0.01193576388888889,0,0,0.01193576388888889,117.35243055555557,0)" xlink:href="#E"/><use transform="matrix(0.01193576388888889,0,0,0.01193576388888889,132.021484375,0)" xlink:href="#I"/></g><g id="u"><use transform="matrix(0.01193576388888889,0,0,0.01193576388888889,0,0)" xlink:href="#Y"/><use transform="matrix(0.01193576388888889,0,0,0.01193576388888889,14.669053819444446,0)" xlink:href="#G"/><use transform="matrix(0.01193576388888889,0,0,0.01193576388888889,29.338107638888893,0)" xlink:href="#M"/><use transform="matrix(0.01193576388888889,0,0,0.01193576388888889,44.00716145833334,0)" xlink:href="#Z"/><use transform="matrix(0.01193576388888889,0,0,0.01193576388888889,58.676215277777786,0)" xlink:href="#K"/><use transform="matrix(0.01193576388888889,0,0,0.01193576388888889,73.34526909722223,0)" xlink:href="#N"/><use transform="matrix(0.01193576388888889,0,0,0.01193576388888889,88.01432291666667,0)" xlink:href="#O"/><use transform="matrix(0.01193576388888889,0,0,0.01193576388888889,102.68337673611111,0)" xlink:href="#aa"/><use transform="matrix(0.01193576388888889,0,0,0.01193576388888889,117.35243055555557,0)" xlink:href="#E"/><use transform="matrix(0.01193576388888889,0,0,0.01193576388888889,132.021484375,0)" xlink:href="#I"/></g><g id="v"><use transform="matrix(0.01193576388888889,0,0,0.01193576388888889,0,0)" xlink:href="#Y"/><use transform="matrix(0.01193576388888889,0,0,0.01193576388888889,14.669053819444446,0)" xlink:href="#G"/><use transform="matrix(0.01193576388888889,0,0,0.01193576388888889,29.338107638888893,0)" xlink:href="#M"/><use transform="matrix(0.01193576388888889,0,0,0.01193576388888889,44.00716145833334,0)" xlink:href="#Z"/><use transform="matrix(0.01193576388888889,0,0,0.01193576388888889,58.676215277777786,0)" xlink:href="#K"/><use transform="matrix(0.01193576388888889,0,0,0.01193576388888889,73.34526909722223,0)" xlink:href="#N"/><use transform="matrix(0.01193576388888889,0,0,0.01193576388888889,88.01432291666667,0)" xlink:href="#L"/><use transform="matrix(0.01193576388888889,0,0,0.01193576388888889,102.68337673611111,0)" xlink:href="#aa"/><use transform="matrix(0.01193576388888889,0,0,0.01193576388888889,117.35243055555557,0)" xlink:href="#E"/><use transform="matrix(0.01193576388888889,0,0,0.01193576388888889,132.021484375,0)" xlink:href="#I"/></g><g id="w"><use transform="matrix(0.01193576388888889,0,0,0.01193576388888889,0,0)" xlink:href="#Y"/><use transform="matrix(0.01193576388888889,0,0,0.01193576388888889,14.669053819444446,0)" xlink:href="#G"/><use transform="matrix(0.01193576388888889,0,0,0.01193576388888889,29.338107638888893,0)" xlink:href="#M"/><use transform="matrix(0.01193576388888889,0,0,0.01193576388888889,44.00716145833334,0)" xlink:href="#Z"/><use transform="matrix(0.01193576388888889,0,0,0.01193576388888889,58.676215277777786,0)" xlink:href="#K"/><use transform="matrix(0.01193576388888889,0,0,0.01193576388888889,73.34526909722223,0)" xlink:href="#N"/><use transform="matrix(0.01193576388888889,0,0,0.01193576388888889,88.01432291666667,0)" xlink:href="#K"/><use transform="matrix(0.01193576388888889,0,0,0.01193576388888889,102.68337673611111,0)" xlink:href="#aa"/><use transform="matrix(0.01193576388888889,0,0,0.01193576388888889,117.35243055555557,0)" xlink:href="#E"/><use transform="matrix(0.01193576388888889,0,0,0.01193576388888889,132.021484375,0)" xlink:href="#I"/></g><g id="x"><use transform="matrix(0.01193576388888889,0,0,0.01193576388888889,0,0)" xlink:href="#Y"/><use transform="matrix(0.01193576388888889,0,0,0.01193576388888889,14.669053819444446,0)" xlink:href="#G"/><use transform="matrix(0.01193576388888889,0,0,0.01193576388888889,29.338107638888893,0)" xlink:href="#M"/><use transform="matrix(0.01193576388888889,0,0,0.01193576388888889,44.00716145833334,0)" xlink:href="#Z"/><use transform="matrix(0.01193576388888889,0,0,0.01193576388888889,58.676215277777786,0)" xlink:href="#K"/><use transform="matrix(0.01193576388888889,0,0,0.01193576388888889,73.34526909722223,0)" xlink:href="#N"/><use transform="matrix(0.01193576388888889,0,0,0.01193576388888889,88.01432291666667,0)" xlink:href="#J"/><use transform="matrix(0.01193576388888889,0,0,0.01193576388888889,102.68337673611111,0)" xlink:href="#aa"/><use transform="matrix(0.01193576388888889,0,0,0.01193576388888889,117.35243055555557,0)" xlink:href="#E"/><use transform="matrix(0.01193576388888889,0,0,0.01193576388888889,132.021484375,0)" xlink:href="#I"/></g><path fill="#242729" d="M751-768h210v250H751v-250zm626 125c0-319-205-523-518-523S336-956 336-643s210 523 523 523 518-205 518-523zm-1189 0c0-404 267-671 671-671 410 0 671 273 671 671S1257 28 859 28 188-239 188-643" id="ac"/><use transform="matrix(0.01953125,0,0,0.01953125,0,0)" xlink:href="#ac" id="y"/><g id="z"><use transform="matrix(0.0087890625,0,0,0.0087890625,0,0)" xlink:href="#G"/><use transform="matrix(0.0087890625,0,0,0.0087890625,10.8017578125,0)" xlink:href="#L"/><use transform="matrix(0.0087890625,0,0,0.0087890625,21.603515625,0)" xlink:href="#I"/></g><g id="A"><use transform="matrix(0.0087890625,0,0,0.0087890625,0,0)" xlink:href="#G"/><use transform="matrix(0.0087890625,0,0,0.0087890625,10.8017578125,0)" xlink:href="#O"/><use transform="matrix(0.0087890625,0,0,0.0087890625,21.603515625,0)" xlink:href="#I"/></g><g id="B"><use transform="matrix(0.0087890625,0,0,0.0087890625,0,0)" xlink:href="#G"/><use transform="matrix(0.0087890625,0,0,0.0087890625,10.8017578125,0)" xlink:href="#K"/><use transform="matrix(0.0087890625,0,0,0.0087890625,21.603515625,0)" xlink:href="#I"/></g><g id="C"><use transform="matrix(0.0087890625,0,0,0.0087890625,0,0)" xlink:href="#G"/><use transform="matrix(0.0087890625,0,0,0.0087890625,10.8017578125,0)" xlink:href="#J"/><use transform="matrix(0.0087890625,0,0,0.0087890625,21.603515625,0)" xlink:href="#I"/></g></defs></g></svg>