<svg xmlns="http://www.w3.org/2000/svg" xmlns:xlink="http://www.w3.org/1999/xlink" xmlns:lucid="lucid" width="1714" height="528.44"><g transform="translate(300 -240)" lucid:page-tab-id="0_0"><path d="M460 300h320v320H460z" stroke="#000" stroke-width="2" fill="#fff"/><use xlink:href="#a" transform="matrix(1,0,0,1,465.0000000000001,305) translate(118.994140625 148.2421875)"/><use xlink:href="#b" transform="matrix(1,0,0,1,465.0000000000001,305) translate(106.9921875 188.2421875)"/><path d="M200 300h140v320H200z" stroke="#000" stroke-width="2" fill="#fff"/><use xlink:href="#c" transform="matrix(1,0,0,1,205,305) translate(28.994140625 167.6171875)"/><path d="M343.5 320h113" stroke="#000" stroke-width="5" fill="none"/><path d="M343.56 322.5H341v-5h2.56zM459 322.5h-2.57v-5H459z"/><path d="M343.5 597.33h113" stroke="#000" stroke-width="5" fill="none"/><path d="M343.56 599.83H341v-5h2.56zM459 599.83h-2.56v-5H459z"/><path d="M403.33 443.33c0 1.84-1.5 3.34-3.33 3.34-1.84 0-3.33-1.5-3.33-3.34 0-1.84 1.5-3.33 3.33-3.33 1.84 0 3.33 1.5 3.33 3.33zM403.33 460c0 1.84-1.5 3.33-3.33 3.33-1.84 0-3.33-1.5-3.33-3.33 0-1.84 1.5-3.33 3.33-3.33 1.84 0 3.33 1.5 3.33 3.33zM403.33 476.67c0 1.84-1.5 3.33-3.33 3.33-1.84 0-3.33-1.5-3.33-3.33 0-1.84 1.5-3.34 3.33-3.34 1.84 0 3.33 1.5 3.33 3.34z" stroke="#000" stroke-width="5"/><path d="M343.5 338.67h113" stroke="#000" stroke-width="5" fill="none"/><path d="M343.56 341.17H341v-5h2.56zM459 341.17h-2.57v-5H459z"/><path d="M343.5 358.67h113" stroke="#000" stroke-width="5" fill="none"/><path d="M343.56 361.17H341v-5h2.56zM459 361.17h-2.56v-5H459z"/><path d="M343.5 378.67h113" stroke="#000" stroke-width="5" fill="none"/><path d="M343.56 381.17H341v-5h2.56zM459 381.17h-2.57v-5H459z"/><path d="M343.5 580h113" stroke="#000" stroke-width="5" fill="none"/><path d="M343.56 582.5H341v-5h2.56zM459 582.5h-2.56v-5H459z"/><path d="M343.5 558.67h113" stroke="#000" stroke-width="5" fill="none"/><path d="M343.56 561.17H341v-5h2.56zM459 561.17h-2.56v-5H459z"/><path d="M343.5 541.33h113" stroke="#000" stroke-width="5" fill="none"/><path d="M343.56 543.83H341v-5h2.56zM459 543.83h-2.56v-5H459z"/><path d="M343.5 520h113" stroke="#000" stroke-width="5" fill="none"/><path d="M343.56 522.5H341v-5h2.56zM459 522.5h-2.56v-5H459z"/><path d="M343.5 397.33h113" stroke="#000" stroke-width="5" fill="none"/><path d="M343.56 399.83H341v-5h2.56zM459 399.83h-2.56v-5H459z"/><path d="M-260 280h80v180h-80z" stroke="#000" stroke-opacity="0" stroke-width="5" fill="#fff" fill-opacity="0"/><use xlink:href="#d" transform="matrix(1,0,0,1,-255,285) translate(8.328993055555557 49.6484375)"/><use xlink:href="#e" transform="matrix(1,0,0,1,-255,285) translate(8.328993055555557 71.87065972222223)"/><use xlink:href="#f" transform="matrix(1,0,0,1,-255,285) translate(8.328993055555557 94.09288194444444)"/><use xlink:href="#g" transform="matrix(1,0,0,1,-255,285) translate(8.328993055555557 116.31510416666666)"/><use xlink:href="#h" transform="matrix(1,0,0,1,-255,285) translate(35 138.53732638888889)"/><path d="M-280 480h100v160h-100z" stroke="#000" stroke-opacity="0" stroke-width="5" fill="#fff" fill-opacity="0"/><use xlink:href="#i" transform="matrix(1,0,0,1,-275,485) translate(4.993489583333329 50.5859375)"/><use xlink:href="#j" transform="matrix(1,0,0,1,-275,485) translate(4.993489583333329 72.80815972222223)"/><use xlink:href="#k" transform="matrix(1,0,0,1,-275,485) translate(4.993489583333329 95.03038194444444)"/><use xlink:href="#l" transform="matrix(1,0,0,1,-275,485) translate(4.993489583333329 117.25260416666666)"/><path d="M-58 300H82v320H-58z" stroke="#000" stroke-width="2" fill="#fff"/><use xlink:href="#m" transform="matrix(1,0,0,1,-53,305) translate(40.99609375 167.6171875)"/><path d="M84.5 320h113M84.56 320H82M197.44 320H200M84.5 598.67h113M84.56 598.67H82M197.44 598.67H200" stroke="#000" stroke-width="5" fill="none"/><path d="M144.33 443.33c0 1.84-1.5 3.34-3.33 3.34-1.84 0-3.33-1.5-3.33-3.34 0-1.84 1.5-3.33 3.33-3.33 1.84 0 3.33 1.5 3.33 3.33zM144.33 460c0 1.84-1.5 3.33-3.33 3.33-1.84 0-3.33-1.5-3.33-3.33 0-1.84 1.5-3.33 3.33-3.33 1.84 0 3.33 1.5 3.33 3.33zM144.33 476.67c0 1.84-1.5 3.33-3.33 3.33-1.84 0-3.33-1.5-3.33-3.33 0-1.84 1.5-3.34 3.33-3.34 1.84 0 3.33 1.5 3.33 3.34z" stroke="#000" stroke-width="5"/><path d="M84.5 338.67h113M84.56 338.67H82M197.44 338.67H200M84.5 358.67h113M84.56 358.67H82M197.44 358.67H200M84.5 378.67h113M84.56 378.67H82M197.43 378.67H200M84.5 581.33h113M84.56 581.33H82M197.44 581.33H200M84.5 560h113M84.56 560H82M197.44 560H200M84.5 542.67h113M84.56 542.67H82M197.44 542.67H200M84.5 521.33h113M84.56 521.33H82M197.44 521.33H200M84.5 397.33h113M84.56 397.33H82M197.44 397.33H200M-173.5 320h113M-173.44 320H-176M-60.56 320H-58M-173.5 598.67h113M-173.44 598.67H-176M-60.56 598.67H-58" stroke="#000" stroke-width="5" fill="none"/><path d="M-133.33 443.33c0 1.84-1.5 3.34-3.34 3.34-1.84 0-3.33-1.5-3.33-3.34 0-1.84 1.5-3.33 3.33-3.33 1.84 0 3.34 1.5 3.34 3.33zM-133.33 460c0 1.84-1.5 3.33-3.34 3.33-1.84 0-3.33-1.5-3.33-3.33 0-1.84 1.5-3.33 3.33-3.33 1.84 0 3.34 1.5 3.34 3.33zM-133.33 476.67c0 1.84-1.5 3.33-3.34 3.33-1.84 0-3.33-1.5-3.33-3.33 0-1.84 1.5-3.34 3.33-3.34 1.84 0 3.34 1.5 3.34 3.34z" stroke="#000" stroke-width="5"/><path d="M-173.5 338.67h113M-173.44 338.67H-176M-60.56 338.67H-58M-173.5 358.67h113M-173.44 358.67H-176M-60.56 358.67H-58M-173.5 378.67h113M-173.44 378.67H-176M-60.57 378.67H-58M-173.5 581.33h113M-173.44 581.33H-176M-60.56 581.33H-58M-173.5 560h113M-173.44 560H-176M-60.56 560H-58M-173.5 542.67h113M-173.44 542.67H-176M-60.56 542.67H-58M-173.5 521.33h113M-173.44 521.33H-176M-60.56 521.33H-58M-173.5 397.33h113M-173.44 397.33H-176M-60.56 397.33H-58" stroke="#000" stroke-width="5" fill="none"/><path d="M220 680h80v60h-80z" stroke="#000" stroke-opacity="0" stroke-width="5" fill="#fff" fill-opacity="0"/><use xlink:href="#n" transform="matrix(1,0,0,1,225,685) translate(8.328993055555557 17.7734375)"/><use xlink:href="#o" transform="matrix(1,0,0,1,225,685) translate(35 39.99565972222222)"/><use xlink:href="#h" transform="matrix(1,0,0,1,225,685) translate(35 62.21788194444444)"/><path d="M-100 300h20v320h-20z" stroke="#000" stroke-width="5" fill="#fff"/><path d="M620 623.5V670H-90v-45" stroke="#000" stroke-width="5" fill="none"/><path d="M622.5 623.56h-5V621h5zM-87.5 625.06h-5v-2.56h5z"/><path d="M898 300h222v320H898z" stroke="#000" stroke-width="2" fill="#fff"/><use xlink:href="#p" transform="matrix(1,0,0,1,903,305.0000000000001) translate(21.986328125 148.2421875)"/><use xlink:href="#q" transform="matrix(1,0,0,1,903,305.0000000000001) translate(57.9921875 188.2421875)"/><path d="M782.5 320h113M782.56 320H780M895.44 320H898M782.5 598.67h113M782.56 598.67H780M895.44 598.67H898" stroke="#000" stroke-width="5" fill="none"/><path d="M842.33 443.33c0 1.84-1.5 3.34-3.33 3.34-1.84 0-3.33-1.5-3.33-3.34 0-1.84 1.5-3.33 3.33-3.33 1.84 0 3.33 1.5 3.33 3.33zM842.33 460c0 1.84-1.5 3.33-3.33 3.33-1.84 0-3.33-1.5-3.33-3.33 0-1.84 1.5-3.33 3.33-3.33 1.84 0 3.33 1.5 3.33 3.33zM842.33 476.67c0 1.84-1.5 3.33-3.33 3.33-1.84 0-3.33-1.5-3.33-3.33 0-1.84 1.5-3.34 3.33-3.34 1.84 0 3.33 1.5 3.33 3.34z" stroke="#000" stroke-width="5"/><path d="M782.5 338.67h113M782.56 338.67H780M895.44 338.67H898M782.5 358.67h113M782.56 358.67H780M895.44 358.67H898M782.5 378.67h113M782.56 378.67H780M895.43 378.67H898M782.5 581.33h113M782.56 581.33H780M895.44 581.33H898M782.5 560h113M782.56 560H780M895.44 560H898M782.5 542.67h113M782.56 542.67H780M895.44 542.67H898M782.5 521.33h113M782.56 521.33H780M895.44 521.33H898M782.5 397.33h113M782.56 397.33H780M895.44 397.33H898M1122.5 320h113M1122.56 320H1120M1235.44 320h2.56M1122.5 598.67h113M1122.56 598.67H1120M1235.44 598.67h2.56" stroke="#000" stroke-width="5" fill="none"/><path d="M1182.33 443.33c0 1.84-1.5 3.34-3.33 3.34-1.84 0-3.33-1.5-3.33-3.34 0-1.84 1.5-3.33 3.33-3.33 1.84 0 3.33 1.5 3.33 3.33zM1182.33 460c0 1.84-1.5 3.33-3.33 3.33-1.84 0-3.33-1.5-3.33-3.33 0-1.84 1.5-3.33 3.33-3.33 1.84 0 3.33 1.5 3.33 3.33zM1182.33 476.67c0 1.84-1.5 3.33-3.33 3.33-1.84 0-3.33-1.5-3.33-3.33 0-1.84 1.5-3.34 3.33-3.34 1.84 0 3.33 1.5 3.33 3.34z" stroke="#000" stroke-width="5"/><path d="M1122.5 338.67h113M1122.56 338.67H1120M1235.44 338.67h2.56M1122.5 358.67h113M1122.56 358.67H1120M1235.44 358.67h2.56M1122.5 378.67h113M1122.56 378.67H1120M1235.43 378.67h2.57M1122.5 581.33h113M1122.56 581.33H1120M1235.44 581.33h2.56M1122.5 560h113M1122.56 560H1120M1235.44 560h2.56M1122.5 542.67h113M1122.56 542.67H1120M1235.44 542.67h2.56M1122.5 521.33h113M1122.56 521.33H1120M1235.44 521.33h2.56M1122.5 397.33h113M1122.56 397.33H1120M1235.44 397.33h2.56" stroke="#000" stroke-width="5" fill="none"/><path d="M1240 260h80v180h-80z" stroke="#000" stroke-opacity="0" stroke-width="5" fill="#fff" fill-opacity="0"/><g><use xlink:href="#r" transform="matrix(1,0,0,1,1245,265) translate(0 67.32855902777779)"/><use xlink:href="#s" transform="matrix(1,0,0,1,1245,265) translate(0 91.77300347222223)"/><use xlink:href="#t" transform="matrix(1,0,0,1,1245,265) translate(0 116.21744791666667)"/><use xlink:href="#u" transform="matrix(1,0,0,1,1245,265) translate(0 140.66189236111111)"/><use xlink:href="#v" transform="matrix(1,0,0,1,1245,265) translate(35 165.10633680555554)"/></g><path d="M1240 500h140v160h-140z" stroke="#000" stroke-opacity="0" stroke-width="5" fill="#fff" fill-opacity="0"/><g><use xlink:href="#w" transform="matrix(1,0,0,1,1245,505) translate(0 19.55078125)"/><use xlink:href="#x" transform="matrix(1,0,0,1,1245,505) translate(0 43.99522569444444)"/><use xlink:href="#y" transform="matrix(1,0,0,1,1245,505) translate(0 68.43967013888889)"/><use xlink:href="#z" transform="matrix(1,0,0,1,1245,505) translate(0 92.88411458333333)"/></g><defs><path d="M912-211c-10-84-18-177-18-274v-864h172V0H836L316-1130c7 79 16 167 16 254V0H162v-1349h222" id="A"/><path d="M932 0L611-444 288 0H94l415-556-397-526h199l300 421 298-421h201L713-558 1133 0H932" id="B"/><g id="a"><use transform="matrix(0.01953125,0,0,0.01953125,0,0)" xlink:href="#A"/><use transform="matrix(0.01953125,0,0,0.01953125,24.00390625,0)" xlink:href="#B"/><use transform="matrix(0.01953125,0,0,0.01953125,48.0078125,0)" xlink:href="#A"/></g><path d="M285-1169c8 382 2 780 4 1169H129v-1349h237c86 239 188 461 253 720 69-258 169-481 255-720h225V0H937c2-390-5-788 6-1169-75 255-170 488-259 729H547c-90-240-185-475-262-729" id="C"/><path d="M528 20c-247 0-343-132-343-381v-721h180v686c-4 177 45 284 224 277 194-8 279-136 279-336v-627h181c3 360-6 732 6 1082H885c-4-54-7-126-8-185h-3C809-64 714 20 528 20" id="D"/><path d="M736-142h380V0H134v-142h422v-1200H267v-142h469v1342" id="E"/><path d="M682 16c-209 0-323-80-324-285v-671H190v-142h170l58-282h120v282h432v142H538v652c2 114 60 155 182 155 106 0 209-16 297-34v137C921-4 806 16 682 16" id="F"/><g id="b"><use transform="matrix(0.01953125,0,0,0.01953125,0,0)" xlink:href="#C"/><use transform="matrix(0.01953125,0,0,0.01953125,24.00390625,0)" xlink:href="#D"/><use transform="matrix(0.01953125,0,0,0.01953125,48.0078125,0)" xlink:href="#E"/><use transform="matrix(0.01953125,0,0,0.01953125,72.01171875,0)" xlink:href="#F"/></g><path d="M116-154v-153l858-367-858-366v-154l995 418v205" id="G"/><path d="M1003 0L516-638 353-469V0H162v-1349h191v673l572-673h225L646-777 1227 0h-224" id="H"/><g id="c"><use transform="matrix(0.01953125,0,0,0.01953125,0,0)" xlink:href="#G"/><use transform="matrix(0.01953125,0,0,0.01953125,24.00390625,0)" xlink:href="#G"/><use transform="matrix(0.01953125,0,0,0.01953125,48.0078125,0)" xlink:href="#H"/></g><path d="M614-1226c-167 1-283 53-283 213 0 183 186 193 334 234 230 63 463 120 463 409 0 286-219 387-518 390C309 23 131-98 79-338l185-37c34 165 149 248 351 246 184-2 324-58 324-238 0-203-207-221-372-266-210-57-422-111-422-377 0-267 201-356 470-360 279-5 430 101 480 324l-188 33c-28-141-121-215-293-213" id="I"/><path d="M410 425v-1909h547v139H590V286h367v139H410" id="J"/><path d="M1065-1013c47 164 49 500-1 665C999-130 875 20 611 20c-377 0-484-300-487-695-2-245 41-425 141-551 77-98 191-144 352-144 261 0 386 140 448 357zM741-155c199-92 203-504 159-785-26-168-96-284-283-284-281 0-308 256-311 549-2 181 18 324 80 428 46 77 115 118 227 120 47 0 90-10 128-28zM496-555v-249h235v249H496" id="K"/><path d="M270 425V286h367v-1631H270v-139h547V425H270" id="L"/><g id="d"><use transform="matrix(0.010850694444444444,0,0,0.010850694444444444,0,0)" xlink:href="#I"/><use transform="matrix(0.010850694444444444,0,0,0.010850694444444444,13.335503472222221,0)" xlink:href="#J"/><use transform="matrix(0.010850694444444444,0,0,0.010850694444444444,26.671006944444443,0)" xlink:href="#K"/><use transform="matrix(0.010850694444444444,0,0,0.010850694444444444,40.006510416666664,0)" xlink:href="#L"/></g><path d="M148-1120c216-7 379-89 463-229h166v1204h353V0H157v-145h439v-1021c-79 124-254 184-448 194v-148" id="M"/><g id="e"><use transform="matrix(0.010850694444444444,0,0,0.010850694444444444,0,0)" xlink:href="#I"/><use transform="matrix(0.010850694444444444,0,0,0.010850694444444444,13.335503472222221,0)" xlink:href="#J"/><use transform="matrix(0.010850694444444444,0,0,0.010850694444444444,26.671006944444443,0)" xlink:href="#M"/><use transform="matrix(0.010850694444444444,0,0,0.010850694444444444,40.006510416666664,0)" xlink:href="#L"/></g><path d="M611-1370c266 0 451 106 451 368 0 147-77 243-154 327-132 144-316 255-451 395-42 44-75 87-96 134h723V0H144v-117c124-264 387-411 582-603 73-72 151-147 151-271 0-161-104-231-266-231-163 0-249 90-268 238l-184-17c35-233 185-369 452-369" id="N"/><g id="f"><use transform="matrix(0.010850694444444444,0,0,0.010850694444444444,0,0)" xlink:href="#I"/><use transform="matrix(0.010850694444444444,0,0,0.010850694444444444,13.335503472222221,0)" xlink:href="#J"/><use transform="matrix(0.010850694444444444,0,0,0.010850694444444444,26.671006944444443,0)" xlink:href="#N"/><use transform="matrix(0.010850694444444444,0,0,0.010850694444444444,40.006510416666664,0)" xlink:href="#L"/></g><path d="M1060-1016c0 191-128 285-295 323v4c154 18 262 91 313 209 14 35 21 72 21 110 0 277-194 390-478 390-292 0-457-129-493-382l186-17c24 161 121 250 307 250 172 1 298-80 291-247-8-208-220-239-446-233v-156c217 9 409-34 409-232 0-152-102-225-264-225-159 0-264 88-278 233l-181-14c33-239 196-367 461-367 264 0 447 102 447 354" id="O"/><g id="g"><use transform="matrix(0.010850694444444444,0,0,0.010850694444444444,0,0)" xlink:href="#I"/><use transform="matrix(0.010850694444444444,0,0,0.010850694444444444,13.335503472222221,0)" xlink:href="#J"/><use transform="matrix(0.010850694444444444,0,0,0.010850694444444444,26.671006944444443,0)" xlink:href="#O"/><use transform="matrix(0.010850694444444444,0,0,0.010850694444444444,40.006510416666664,0)" xlink:href="#L"/></g><path d="M334-464v-160h560v160H334" id="P"/><path d="M937-319V0H757v-319H103v-140l635-890h199v888h188v142H937zm-180-835L257-461h500v-693" id="Q"/><g id="i"><use transform="matrix(0.010850694444444444,0,0,0.010850694444444444,0,0)" xlink:href="#I"/><use transform="matrix(0.010850694444444444,0,0,0.010850694444444444,13.335503472222221,0)" xlink:href="#J"/><use transform="matrix(0.010850694444444444,0,0,0.010850694444444444,26.671006944444443,0)" xlink:href="#A"/><use transform="matrix(0.010850694444444444,0,0,0.010850694444444444,40.006510416666664,0)" xlink:href="#P"/><use transform="matrix(0.010850694444444444,0,0,0.010850694444444444,53.342013888888886,0)" xlink:href="#Q"/><use transform="matrix(0.010850694444444444,0,0,0.010850694444444444,66.67751736111111,0)" xlink:href="#L"/></g><g id="j"><use transform="matrix(0.010850694444444444,0,0,0.010850694444444444,0,0)" xlink:href="#I"/><use transform="matrix(0.010850694444444444,0,0,0.010850694444444444,13.335503472222221,0)" xlink:href="#J"/><use transform="matrix(0.010850694444444444,0,0,0.010850694444444444,26.671006944444443,0)" xlink:href="#A"/><use transform="matrix(0.010850694444444444,0,0,0.010850694444444444,40.006510416666664,0)" xlink:href="#P"/><use transform="matrix(0.010850694444444444,0,0,0.010850694444444444,53.342013888888886,0)" xlink:href="#O"/><use transform="matrix(0.010850694444444444,0,0,0.010850694444444444,66.67751736111111,0)" xlink:href="#L"/></g><g id="k"><use transform="matrix(0.010850694444444444,0,0,0.010850694444444444,0,0)" xlink:href="#I"/><use transform="matrix(0.010850694444444444,0,0,0.010850694444444444,13.335503472222221,0)" xlink:href="#J"/><use transform="matrix(0.010850694444444444,0,0,0.010850694444444444,26.671006944444443,0)" xlink:href="#A"/><use transform="matrix(0.010850694444444444,0,0,0.010850694444444444,40.006510416666664,0)" xlink:href="#P"/><use transform="matrix(0.010850694444444444,0,0,0.010850694444444444,53.342013888888886,0)" xlink:href="#N"/><use transform="matrix(0.010850694444444444,0,0,0.010850694444444444,66.67751736111111,0)" xlink:href="#L"/></g><g id="l"><use transform="matrix(0.010850694444444444,0,0,0.010850694444444444,0,0)" xlink:href="#I"/><use transform="matrix(0.010850694444444444,0,0,0.010850694444444444,13.335503472222221,0)" xlink:href="#J"/><use transform="matrix(0.010850694444444444,0,0,0.010850694444444444,26.671006944444443,0)" xlink:href="#A"/><use transform="matrix(0.010850694444444444,0,0,0.010850694444444444,40.006510416666664,0)" xlink:href="#P"/><use transform="matrix(0.010850694444444444,0,0,0.010850694444444444,53.342013888888886,0)" xlink:href="#M"/><use transform="matrix(0.010850694444444444,0,0,0.010850694444444444,66.67751736111111,0)" xlink:href="#L"/></g><path d="M709-1193V0H519v-1193H76v-156h1076v156H709" id="R"/><path d="M671-1188l264-103 45 132-282 73 185 250-119 72-150-258-156 256-119-72 189-248-280-73 45-134 267 107-12-297h136" id="S"/><g id="m"><use transform="matrix(0.01953125,0,0,0.01953125,0,0)" xlink:href="#R"/><use transform="matrix(0.01953125,0,0,0.01953125,24.00390625,0)" xlink:href="#S"/></g><path d="M706-1102c241 0 344 136 343 381V0H868v-695c1-168-57-273-220-268-190 6-283 138-283 336V0H185c-3-360 6-732-6-1082h170c4 54 7 126 8 185h3c63-121 164-204 346-205" id="T"/><g id="n"><use transform="matrix(0.010850694444444444,0,0,0.010850694444444444,0,0)" xlink:href="#I"/><use transform="matrix(0.010850694444444444,0,0,0.010850694444444444,13.335503472222221,0)" xlink:href="#J"/><use transform="matrix(0.010850694444444444,0,0,0.010850694444444444,26.671006944444443,0)" xlink:href="#T"/><use transform="matrix(0.010850694444444444,0,0,0.010850694444444444,40.006510416666664,0)" xlink:href="#L"/></g><path d="M622-1349c296 4 497 117 497 404 0 282-193 424-485 431H353V0H162v-1349h460zm-15 684c195-3 320-88 320-277 0-184-129-255-328-254H353v531h254" id="U"/><path d="M615-1102c343 0 484 203 482 560-1 347-147 562-488 562-336 0-475-219-479-562-4-349 156-560 485-560zm-8 989c240 0 301-180 301-429 0-245-55-427-290-427-236 0-299 181-299 427 0 243 61 429 288 429" id="V"/><path d="M745-142h380V0H143v-142h422v-798H246v-142h499v940zM545-1292v-192h200v192H545" id="W"/><g id="p"><use transform="matrix(0.01953125,0,0,0.01953125,0,0)" xlink:href="#A"/><use transform="matrix(0.01953125,0,0,0.01953125,24.00390625,0)" xlink:href="#P"/><use transform="matrix(0.01953125,0,0,0.01953125,48.0078125,0)" xlink:href="#U"/><use transform="matrix(0.01953125,0,0,0.01953125,72.01171875,0)" xlink:href="#V"/><use transform="matrix(0.01953125,0,0,0.01953125,96.015625,0)" xlink:href="#W"/><use transform="matrix(0.01953125,0,0,0.01953125,120.01953125,0)" xlink:href="#T"/><use transform="matrix(0.01953125,0,0,0.01953125,144.0234375,0)" xlink:href="#F"/></g><path d="M202-1349h823v156H709v1037h316V0H202v-156h316v-1037H202v-156" id="X"/><path d="M385-1193v494h676v158H385V0H194v-1349h891v156H385" id="Y"/><g id="q"><use transform="matrix(0.01953125,0,0,0.01953125,0,0)" xlink:href="#X"/><use transform="matrix(0.01953125,0,0,0.01953125,24.00390625,0)" xlink:href="#Y"/><use transform="matrix(0.01953125,0,0,0.01953125,48.0078125,0)" xlink:href="#Y"/><use transform="matrix(0.01953125,0,0,0.01953125,72.01171875,0)" xlink:href="#R"/></g><path d="M614-836l333-513h205L717-705 1193 0H988L614-573 241 0H36l476-705-435-644h205" id="Z"/><path d="M114 20l821-1504h178L296 20H114" id="aa"/><path d="M259 363l169-662h265L382 363H259" id="ab"/><g id="r"><use transform="matrix(0.01193576388888889,0,0,0.01193576388888889,0,0)" xlink:href="#Z"/><use transform="matrix(0.01193576388888889,0,0,0.01193576388888889,14.669053819444446,0)" xlink:href="#J"/><use transform="matrix(0.01193576388888889,0,0,0.01193576388888889,29.338107638888893,0)" xlink:href="#A"/><use transform="matrix(0.01193576388888889,0,0,0.01193576388888889,44.00716145833334,0)" xlink:href="#aa"/><use transform="matrix(0.01193576388888889,0,0,0.01193576388888889,58.676215277777786,0)" xlink:href="#N"/><use transform="matrix(0.01193576388888889,0,0,0.01193576388888889,73.34526909722223,0)" xlink:href="#ab"/><use transform="matrix(0.01193576388888889,0,0,0.01193576388888889,88.01432291666667,0)" xlink:href="#H"/><use transform="matrix(0.01193576388888889,0,0,0.01193576388888889,102.68337673611111,0)" xlink:href="#L"/></g><path d="M687-608v428H540v-428H116v-146h424v-428h147v428h424v146H687" id="ac"/><g id="s"><use transform="matrix(0.01193576388888889,0,0,0.01193576388888889,0,0)" xlink:href="#Z"/><use transform="matrix(0.01193576388888889,0,0,0.01193576388888889,14.669053819444446,0)" xlink:href="#J"/><use transform="matrix(0.01193576388888889,0,0,0.01193576388888889,29.338107638888893,0)" xlink:href="#A"/><use transform="matrix(0.01193576388888889,0,0,0.01193576388888889,44.00716145833334,0)" xlink:href="#aa"/><use transform="matrix(0.01193576388888889,0,0,0.01193576388888889,58.676215277777786,0)" xlink:href="#N"/><use transform="matrix(0.01193576388888889,0,0,0.01193576388888889,73.34526909722223,0)" xlink:href="#ac"/><use transform="matrix(0.01193576388888889,0,0,0.01193576388888889,88.01432291666667,0)" xlink:href="#M"/><use transform="matrix(0.01193576388888889,0,0,0.01193576388888889,102.68337673611111,0)" xlink:href="#ab"/><use transform="matrix(0.01193576388888889,0,0,0.01193576388888889,117.35243055555557,0)" xlink:href="#H"/><use transform="matrix(0.01193576388888889,0,0,0.01193576388888889,132.021484375,0)" xlink:href="#L"/></g><g id="t"><use transform="matrix(0.01193576388888889,0,0,0.01193576388888889,0,0)" xlink:href="#Z"/><use transform="matrix(0.01193576388888889,0,0,0.01193576388888889,14.669053819444446,0)" xlink:href="#J"/><use transform="matrix(0.01193576388888889,0,0,0.01193576388888889,29.338107638888893,0)" xlink:href="#A"/><use transform="matrix(0.01193576388888889,0,0,0.01193576388888889,44.00716145833334,0)" xlink:href="#aa"/><use transform="matrix(0.01193576388888889,0,0,0.01193576388888889,58.676215277777786,0)" xlink:href="#N"/><use transform="matrix(0.01193576388888889,0,0,0.01193576388888889,73.34526909722223,0)" xlink:href="#ac"/><use transform="matrix(0.01193576388888889,0,0,0.01193576388888889,88.01432291666667,0)" xlink:href="#N"/><use transform="matrix(0.01193576388888889,0,0,0.01193576388888889,102.68337673611111,0)" xlink:href="#ab"/><use transform="matrix(0.01193576388888889,0,0,0.01193576388888889,117.35243055555557,0)" xlink:href="#H"/><use transform="matrix(0.01193576388888889,0,0,0.01193576388888889,132.021484375,0)" xlink:href="#L"/></g><g id="u"><use transform="matrix(0.01193576388888889,0,0,0.01193576388888889,0,0)" xlink:href="#Z"/><use transform="matrix(0.01193576388888889,0,0,0.01193576388888889,14.669053819444446,0)" xlink:href="#J"/><use transform="matrix(0.01193576388888889,0,0,0.01193576388888889,29.338107638888893,0)" xlink:href="#A"/><use transform="matrix(0.01193576388888889,0,0,0.01193576388888889,44.00716145833334,0)" xlink:href="#aa"/><use transform="matrix(0.01193576388888889,0,0,0.01193576388888889,58.676215277777786,0)" xlink:href="#N"/><use transform="matrix(0.01193576388888889,0,0,0.01193576388888889,73.34526909722223,0)" xlink:href="#ac"/><use transform="matrix(0.01193576388888889,0,0,0.01193576388888889,88.01432291666667,0)" xlink:href="#O"/><use transform="matrix(0.01193576388888889,0,0,0.01193576388888889,102.68337673611111,0)" xlink:href="#ab"/><use transform="matrix(0.01193576388888889,0,0,0.01193576388888889,117.35243055555557,0)" xlink:href="#H"/><use transform="matrix(0.01193576388888889,0,0,0.01193576388888889,132.021484375,0)" xlink:href="#L"/></g><g id="w"><use transform="matrix(0.01193576388888889,0,0,0.01193576388888889,0,0)" xlink:href="#Z"/><use transform="matrix(0.01193576388888889,0,0,0.01193576388888889,14.669053819444446,0)" xlink:href="#J"/><use transform="matrix(0.01193576388888889,0,0,0.01193576388888889,29.338107638888893,0)" xlink:href="#A"/><use transform="matrix(0.01193576388888889,0,0,0.01193576388888889,44.00716145833334,0)" xlink:href="#aa"/><use transform="matrix(0.01193576388888889,0,0,0.01193576388888889,58.676215277777786,0)" xlink:href="#N"/><use transform="matrix(0.01193576388888889,0,0,0.01193576388888889,73.34526909722223,0)" xlink:href="#P"/><use transform="matrix(0.01193576388888889,0,0,0.01193576388888889,88.01432291666667,0)" xlink:href="#Q"/><use transform="matrix(0.01193576388888889,0,0,0.01193576388888889,102.68337673611111,0)" xlink:href="#ab"/><use transform="matrix(0.01193576388888889,0,0,0.01193576388888889,117.35243055555557,0)" xlink:href="#H"/><use transform="matrix(0.01193576388888889,0,0,0.01193576388888889,132.021484375,0)" xlink:href="#L"/></g><g id="x"><use transform="matrix(0.01193576388888889,0,0,0.01193576388888889,0,0)" xlink:href="#Z"/><use transform="matrix(0.01193576388888889,0,0,0.01193576388888889,14.669053819444446,0)" xlink:href="#J"/><use transform="matrix(0.01193576388888889,0,0,0.01193576388888889,29.338107638888893,0)" xlink:href="#A"/><use transform="matrix(0.01193576388888889,0,0,0.01193576388888889,44.00716145833334,0)" xlink:href="#aa"/><use transform="matrix(0.01193576388888889,0,0,0.01193576388888889,58.676215277777786,0)" xlink:href="#N"/><use transform="matrix(0.01193576388888889,0,0,0.01193576388888889,73.34526909722223,0)" xlink:href="#P"/><use transform="matrix(0.01193576388888889,0,0,0.01193576388888889,88.01432291666667,0)" xlink:href="#O"/><use transform="matrix(0.01193576388888889,0,0,0.01193576388888889,102.68337673611111,0)" xlink:href="#ab"/><use transform="matrix(0.01193576388888889,0,0,0.01193576388888889,117.35243055555557,0)" xlink:href="#H"/><use transform="matrix(0.01193576388888889,0,0,0.01193576388888889,132.021484375,0)" xlink:href="#L"/></g><g id="y"><use transform="matrix(0.01193576388888889,0,0,0.01193576388888889,0,0)" xlink:href="#Z"/><use transform="matrix(0.01193576388888889,0,0,0.01193576388888889,14.669053819444446,0)" xlink:href="#J"/><use transform="matrix(0.01193576388888889,0,0,0.01193576388888889,29.338107638888893,0)" xlink:href="#A"/><use transform="matrix(0.01193576388888889,0,0,0.01193576388888889,44.00716145833334,0)" xlink:href="#aa"/><use transform="matrix(0.01193576388888889,0,0,0.01193576388888889,58.676215277777786,0)" xlink:href="#N"/><use transform="matrix(0.01193576388888889,0,0,0.01193576388888889,73.34526909722223,0)" xlink:href="#P"/><use transform="matrix(0.01193576388888889,0,0,0.01193576388888889,88.01432291666667,0)" xlink:href="#N"/><use transform="matrix(0.01193576388888889,0,0,0.01193576388888889,102.68337673611111,0)" xlink:href="#ab"/><use transform="matrix(0.01193576388888889,0,0,0.01193576388888889,117.35243055555557,0)" xlink:href="#H"/><use transform="matrix(0.01193576388888889,0,0,0.01193576388888889,132.021484375,0)" xlink:href="#L"/></g><g id="z"><use transform="matrix(0.01193576388888889,0,0,0.01193576388888889,0,0)" xlink:href="#Z"/><use transform="matrix(0.01193576388888889,0,0,0.01193576388888889,14.669053819444446,0)" xlink:href="#J"/><use transform="matrix(0.01193576388888889,0,0,0.01193576388888889,29.338107638888893,0)" xlink:href="#A"/><use transform="matrix(0.01193576388888889,0,0,0.01193576388888889,44.00716145833334,0)" xlink:href="#aa"/><use transform="matrix(0.01193576388888889,0,0,0.01193576388888889,58.676215277777786,0)" xlink:href="#N"/><use transform="matrix(0.01193576388888889,0,0,0.01193576388888889,73.34526909722223,0)" xlink:href="#P"/><use transform="matrix(0.01193576388888889,0,0,0.01193576388888889,88.01432291666667,0)" xlink:href="#M"/><use transform="matrix(0.01193576388888889,0,0,0.01193576388888889,102.68337673611111,0)" xlink:href="#ab"/><use transform="matrix(0.01193576388888889,0,0,0.01193576388888889,117.35243055555557,0)" xlink:href="#H"/><use transform="matrix(0.01193576388888889,0,0,0.01193576388888889,132.021484375,0)" xlink:href="#L"/></g></defs></g></svg>